<svg version="1.1" id="Layer_1" focusable="false" xmlns="http://www.w3.org/2000/svg" xmlns:xlink="http://www.w3.org/1999/xlink" x="0px" y="0px" viewBox="0 0 61.9 97.5" style="enable-background:new 0 0 61.9 97.5;" xml:space="preserve">
 <style type="text/css">
  .st0{fill-rule:evenodd;clip-rule:evenodd;fill:#1B0088;}
	.st1{fill-rule:evenodd;clip-rule:evenodd;fill:#ED1650;}
 </style>
 <g>
  <path class="st0" d="M14.6,86.9l8.7-3.1c1.8-0.6,1.8,0.8,1.8,2.9v3.9c0,3.2-1.1,3.6-2.5,4.1l-8,2.9V86.9 M14.6,69.4l22.2-7.9
		c1.8-0.6,1.8,0.8,1.8,2.9v3.9c0,3.2-1.1,3.6-2.5,4.1l-21.5,7.6V69.4 M12.7,44.5l-11.3-4C0,40,0,38.1,0,37.4c0,0,0,2.3,2.2,1.6
		l55.3-19.7c4.4-1.6,4.4-2.8,2.5-3.4c1.8,0.6,1.8,0.6,1.8,5.9c0,5,0,6.7-2.2,7.4L16.4,44.5C14.6,45.2,14.6,45.2,12.7,44.5">
  </path>
  <path class="st1" d="M4.7,24.2l19.3,6.9l15-5.3L2.9,12.9C0.4,12,0,11.9,0,13.7v4.6C0,22.6,3.3,23.7,4.7,24.2 M60.1,33.3l-6-2.1
		l-15,5.3l9.5,3.4l8.9-3.2C61.9,35.1,61.9,33.9,60.1,33.3">
  </path>
  <path class="st0" d="M60.1,33.3c1.8,0.6,1.8,1.8-2.5,3.4L14.6,52v10.7l45.1-16.1c2.2-0.8,2.2-2.4,2.2-7.4
		C61.9,33.9,61.9,33.9,60.1,33.3">
  </path>
  <path class="st1" d="M60.1,15.8L17.5,0.6c-2.5-0.9-2.9-1-2.9,0.7V6c0,4.3,3.3,5.4,4.7,6l29.3,10.4l8.9-3.2
		C61.9,17.7,61.9,16.5,60.1,15.8 M2.2,38.9l12.4-4.4L2.9,30.4c-2.5-0.9-2.9-1-2.9,0.7v6.3C0,37.4,0,39.7,2.2,38.9">
  </path>
 </g>
</svg>